<svg width="40" height="40" viewBox="0 0 40 40" fill="none" xmlns="http://www.w3.org/2000/svg">
<path d="M25.4851 1.05273H8.64296L7.59033 34.7369L9.16928 36.3159L29.6956 37.3685L33.9061 35.7896V10.0001L25.4851 1.05273Z" fill="white"/>
<path d="M33.9076 7.86523L26.7711 1.1136C26.012 0.395452 25.0184 0 23.9735 0H10.3864C8.1418 0 6.31567 1.82613 6.31567 4.07072V33.824C6.31567 36.0686 8.1418 37.8947 10.3864 37.8947H31.1101C33.3547 37.8947 35.1808 36.0686 35.1808 33.824V10.8224C35.1808 9.70853 34.7167 8.63067 33.9076 7.86523ZM31.7511 8.88158H26.2252C26.0212 8.88158 25.8551 8.71557 25.8551 8.51151V3.30365L31.7511 8.88158ZM31.1101 35.6743H10.3864C9.36613 35.6743 8.53607 34.8443 8.53607 33.824V4.07072C8.53607 3.05045 9.36613 2.22039 10.3864 2.22039H23.6348V8.51151C23.6348 9.93989 24.7968 11.102 26.2252 11.102H32.9604V33.824C32.9604 34.8443 32.1304 35.6743 31.1101 35.6743Z" fill="url(#paint0_linear_390_650)"/>
<path d="M31.8024 9.97046L24.6658 3.21883C23.9068 2.50068 22.9132 2.10522 21.8683 2.10522H8.28117C6.03658 2.10522 4.21045 3.93135 4.21045 6.17595V35.9292C4.21045 38.1738 6.03658 40 8.28117 40H29.0049C31.2495 40 33.0756 38.1738 33.0756 35.9292V12.9276C33.0756 11.8138 32.6115 10.7359 31.8024 9.97046ZM29.6459 10.9868H24.12C23.9159 10.9868 23.7499 10.8208 23.7499 10.6167V5.40888L29.6459 10.9868ZM29.0049 37.7796L9.49991 37.5C8.47964 37.5 6.49991 36.0202 6.49991 35L6.43084 6.17595C6.43084 5.15568 7.2609 4.32562 8.28117 4.32562H21.5295V10.6167C21.5295 12.0451 22.6916 13.2072 24.12 13.2072H30.8552V35.9292C30.8552 36.9495 30.0251 37.7796 29.0049 37.7796Z" fill="#DA1F10" fill-opacity="0.3"/>
<path d="M28.6678 14.8027H12.3849C11.7717 14.8027 11.2747 15.2998 11.2747 15.9129C11.2747 16.5261 11.7717 17.0231 12.3849 17.0231H28.6678C29.2809 17.0231 29.7779 16.5261 29.7779 15.9129C29.7779 15.2998 29.2809 14.8027 28.6678 14.8027ZM28.6678 20.7238H12.3849C11.7717 20.7238 11.2747 21.2209 11.2747 21.834C11.2747 22.4471 11.7717 22.9442 12.3849 22.9442H28.6678C29.2809 22.9442 29.7779 22.4471 29.7779 21.834C29.7779 21.2209 29.2809 20.7238 28.6678 20.7238ZM17.7671 26.6448H12.3849C11.7717 26.6448 11.2747 27.1419 11.2747 27.755C11.2747 28.3682 11.7717 28.8652 12.3849 28.8652H17.7671C18.3802 28.8652 18.8773 28.3682 18.8773 27.755C18.8773 27.1419 18.3802 26.6448 17.7671 26.6448Z" fill="url(#paint1_linear_390_650)"/>
<defs>
<linearGradient id="paint0_linear_390_650" x1="21.0687" y1="39.1639" x2="18.1246" y2="0.887487" gradientUnits="userSpaceOnUse">
<stop stop-color="#DA1F10"/>
<stop offset="1" stop-color="#EE6C4D"/>
</linearGradient>
<linearGradient id="paint1_linear_390_650" x1="20.7317" y1="29.3362" x2="20.0968" y2="15.0763" gradientUnits="userSpaceOnUse">
<stop stop-color="#DA1F10"/>
<stop offset="1" stop-color="#EE6C4D"/>
</linearGradient>
</defs>
</svg>
